<?xml version="1.0" encoding="utf-8"?>
<!-- Generator: Adobe Illustrator 18.0.0, SVG Export Plug-In . SVG Version: 6.00 Build 0)  -->
<!DOCTYPE svg PUBLIC "-//W3C//DTD SVG 1.1//EN" "http://www.w3.org/Graphics/SVG/1.1/DTD/svg11.dtd">
<svg version="1.1" id="Layer_1" xmlns="http://www.w3.org/2000/svg" xmlns:xlink="http://www.w3.org/1999/xlink" x="0px" y="0px"
	 viewBox="0 0 283.4 27.8" enable-background="new 0 0 283.4 27.8" xml:space="preserve">
<g>
	<path fill="#E6E6E6" d="M4.5,21.5h7.8v3.7H0.1v-22h4.5V21.5z"/>
	<path fill="#E6E6E6" d="M25.5,15.7h-6.9v5.8h8.2v3.7H14.1v-22h12.6v3.7h-8.2v5.2h6.9V15.7z"/>
	<path fill="#E6E6E6" d="M44.1,16.2c0,3-0.7,5.3-2.1,6.9c-1.4,1.6-3.3,2.5-5.8,2.5c-2.5,0-4.4-0.8-5.8-2.4c-1.4-1.6-2.1-3.9-2.1-6.8
		v-3.8c0-3,0.7-5.4,2.1-7.1c1.4-1.7,3.4-2.6,5.8-2.6c2.5,0,4.4,0.8,5.8,2.5c1.4,1.7,2.1,4,2.1,7V16.2z M39.6,12.5
		c0-2-0.3-3.5-0.8-4.4c-0.6-1-1.4-1.5-2.6-1.5c-1.2,0-2.1,0.5-2.6,1.4c-0.6,0.9-0.9,2.4-0.9,4.3v3.9c0,1.9,0.3,3.3,0.9,4.3
		s1.5,1.4,2.7,1.4c1.2,0,2-0.4,2.6-1.3c0.6-0.9,0.9-2.3,0.9-4.2V12.5z"/>
	<path fill="#E6E6E6" d="M61.9,25.2h-4.5l-6.5-14.5v14.5h-4.5v-22h4.5l6.5,14.5V3.2h4.4V25.2z"/>
	<path fill="#E6E6E6" d="M75.5,20.7h-6.1l-1.2,4.5h-4.7l6.9-22h4.1l6.9,22h-4.8L75.5,20.7z M70.4,17h4.1l-2.1-7.9L70.4,17z"/>
	<path fill="#E6E6E6" d="M89.4,17.2h-2.2v8.1h-4.5v-22h7.1c2.2,0,4,0.6,5.2,1.7c1.2,1.2,1.8,2.8,1.8,4.9c0,2.9-1.1,5-3.2,6.1l3.9,9
		v0.2h-4.8L89.4,17.2z M87.2,13.5h2.5c0.9,0,1.6-0.3,2-0.9c0.4-0.6,0.7-1.4,0.7-2.4c0-2.2-0.9-3.3-2.6-3.3h-2.6V13.5z"/>
	<path fill="#E6E6E6" d="M99.1,25.2v-22h5.8c2.6,0,4.6,0.8,6.2,2.5c1.5,1.6,2.3,3.9,2.3,6.7v3.6c0,2.9-0.8,5.2-2.3,6.8
		c-1.5,1.6-3.6,2.5-6.3,2.5H99.1z M103.5,6.9v14.6h1.3c1.5,0,2.5-0.4,3.1-1.2s0.9-2.1,1-4v-3.8c0-2.1-0.3-3.5-0.9-4.3
		c-0.6-0.8-1.6-1.2-2.9-1.3H103.5z"/>
	<path fill="#E6E6E6" d="M131.4,16.2c0,3-0.7,5.3-2.1,6.9c-1.4,1.6-3.3,2.5-5.8,2.5c-2.5,0-4.4-0.8-5.8-2.4
		c-1.4-1.6-2.1-3.9-2.1-6.8v-3.8c0-3,0.7-5.4,2.1-7.1c1.4-1.7,3.4-2.6,5.8-2.6c2.5,0,4.4,0.8,5.8,2.5c1.4,1.7,2.1,4,2.1,7V16.2z
		 M126.9,12.5c0-2-0.3-3.5-0.8-4.4c-0.6-1-1.4-1.5-2.6-1.5c-1.2,0-2.1,0.5-2.6,1.4c-0.6,0.9-0.9,2.4-0.9,4.3v3.9
		c0,1.9,0.3,3.3,0.9,4.3s1.5,1.4,2.7,1.4c1.2,0,2-0.4,2.6-1.3c0.6-0.9,0.9-2.3,0.9-4.2V12.5z"/>
	<path fill="#E6E6E6" d="M147.3,19.2l3.7-16h5l-6.4,22H145l-6.3-22h4.9L147.3,19.2z"/>
	<path fill="#E6E6E6" d="M166.7,20.7h-6.1l-1.2,4.5h-4.7l6.9-22h4.1l6.9,22h-4.8L166.7,20.7z M161.6,17h4.1l-2.1-7.9L161.6,17z"/>
	<path fill="#E6E6E6" d="M178.3,21.5h7.8v3.7h-12.3v-22h4.4V21.5z"/>
	<path fill="#E6E6E6" d="M187.9,25.2v-22h5.8c2.6,0,4.6,0.8,6.2,2.5c1.5,1.6,2.3,3.9,2.3,6.7v3.6c0,2.9-0.8,5.2-2.3,6.8
		c-1.5,1.6-3.6,2.5-6.3,2.5H187.9z M192.4,6.9v14.6h1.3c1.5,0,2.5-0.4,3.1-1.2s0.9-2.1,1-4v-3.8c0-2.1-0.3-3.5-0.9-4.3
		c-0.6-0.8-1.6-1.2-2.9-1.3H192.4z"/>
	<path fill="#E6E6E6" d="M216.1,15.7h-6.9v5.8h8.2v3.7h-12.7v-22h12.6v3.7h-8.2v5.2h6.9V15.7z"/>
	<path fill="#E6E6E6" d="M233.7,6.9h-5.4v18.3h-4.5V6.9h-5.4V3.2h15.3V6.9z"/>
	<path fill="#E6E6E6" d="M244.2,20.7h-6.1l-1.2,4.5h-4.7l6.9-22h4.1l6.9,22h-4.8L244.2,20.7z M239.1,17h4.1l-2.1-7.9L239.1,17z"/>
	<path fill="#E6E6E6" d="M258.1,17.2h-2.2v8.1h-4.5v-22h7.1c2.2,0,4,0.6,5.2,1.7c1.2,1.2,1.8,2.8,1.8,4.9c0,2.9-1.1,5-3.2,6.1l3.9,9
		v0.2h-4.8L258.1,17.2z M255.9,13.5h2.5c0.9,0,1.6-0.3,2-0.9c0.4-0.6,0.7-1.4,0.7-2.4c0-2.2-0.9-3.3-2.6-3.3h-2.6V13.5z"/>
	<path fill="#E6E6E6" d="M283.3,16.2c0,3-0.7,5.3-2.1,6.9s-3.3,2.5-5.8,2.5c-2.5,0-4.4-0.8-5.8-2.4c-1.4-1.6-2.1-3.9-2.1-6.8v-3.8
		c0-3,0.7-5.4,2.1-7.1c1.4-1.7,3.4-2.6,5.8-2.6c2.5,0,4.4,0.8,5.8,2.5c1.4,1.7,2.1,4,2.1,7V16.2z M278.8,12.5c0-2-0.3-3.5-0.8-4.4
		c-0.6-1-1.4-1.5-2.6-1.5c-1.2,0-2.1,0.5-2.6,1.4s-0.9,2.4-0.9,4.3v3.9c0,1.9,0.3,3.3,0.9,4.3c0.6,0.9,1.5,1.4,2.7,1.4
		c1.2,0,2-0.4,2.6-1.3c0.6-0.9,0.9-2.3,0.9-4.2V12.5z"/>
</g>
</svg>
